<mxfile host="app.diagrams.net" modified="2022-11-20T00:18:04.339Z" agent="5.0 (Windows NT 10.0; Win64; x64) AppleWebKit/537.36 (KHTML, like Gecko) Chrome/107.0.0.0 Safari/537.36 Edg/107.0.1418.42" etag="-AyUaMuI6R6qrc2vAvpk" version="19.0.3" type="github">
  <diagram id="tphcuAVLXs0xVsTK2Fc-" name="Page-1">
    <mxGraphModel dx="1016" dy="589" grid="1" gridSize="10" guides="1" tooltips="1" connect="1" arrows="1" fold="1" page="1" pageScale="1" pageWidth="1100" pageHeight="850" math="0" shadow="0">
      <root>
        <mxCell id="0" />
        <mxCell id="1" parent="0" />
        <mxCell id="pgKkZ4p-9CvN8be3TRm3-1" value="Firewall" style="rounded=0;whiteSpace=wrap;html=1;fillColor=#f8cecc;strokeColor=#b85450;" parent="1" vertex="1">
          <mxGeometry x="370" y="20" width="130" height="610" as="geometry" />
        </mxCell>
        <mxCell id="pgKkZ4p-9CvN8be3TRm3-2" value="&lt;span style=&quot;&quot;&gt;PORT 1&lt;/span&gt;&lt;br style=&quot;&quot;&gt;&lt;span style=&quot;&quot;&gt;Public_Perimeter_aza_net&lt;/span&gt;&lt;br style=&quot;&quot;&gt;&lt;span style=&quot;&quot;&gt;100.96.192.0/16&lt;/span&gt;&lt;br style=&quot;&quot;&gt;&lt;span style=&quot;&quot;&gt;Rout Table: Public_Shared_RT1&lt;br&gt;&lt;br&gt;&lt;div&gt;0.0.0.0/0&lt;span style=&quot;&quot;&gt;	&lt;span style=&quot;white-space: pre;&quot;&gt;	&lt;/span&gt;&lt;span style=&quot;white-space: pre;&quot;&gt;	&lt;/span&gt;&lt;span style=&quot;white-space: pre;&quot;&gt;	&lt;/span&gt;&lt;/span&gt;DirectConnect VGW&lt;/div&gt;&lt;div&gt;10.0.0.0/8&lt;span style=&quot;white-space: pre;&quot;&gt;	&lt;/span&gt;&lt;span style=&quot;white-space: pre;&quot;&gt;	&lt;/span&gt;FWA-Port2&lt;/div&gt;&lt;div&gt;10.2.0.0/16&lt;span style=&quot;white-space: pre;&quot;&gt;	&lt;/span&gt;&lt;span style=&quot;white-space: pre;&quot;&gt;	&lt;/span&gt;FWA-Port2&lt;/div&gt;&lt;div&gt;10.7.4.0/22&lt;span style=&quot;white-space: pre;&quot;&gt;	&lt;/span&gt;&lt;span style=&quot;white-space: pre;&quot;&gt;	&lt;/span&gt;local&lt;/div&gt;&lt;div&gt;100.96.192.0/23&lt;span style=&quot;white-space: pre;&quot;&gt;	&lt;/span&gt;local&lt;/div&gt;&lt;div&gt;169.254.225.13/32&lt;span style=&quot;white-space: pre;&quot;&gt;	&lt;/span&gt;DirectConnect VGW&lt;span style=&quot;&quot;&gt;	&lt;/span&gt;&amp;nbsp;&lt;/div&gt;&lt;div&gt;169.254.226.13/32&lt;span style=&quot;white-space: pre;&quot;&gt;	&lt;/span&gt;DirectConnect VGW&lt;/div&gt;&lt;/span&gt;" style="rounded=0;whiteSpace=wrap;html=1;align=left;verticalAlign=top;" parent="1" vertex="1">
          <mxGeometry x="120" y="40" width="250" height="180" as="geometry" />
        </mxCell>
        <mxCell id="pgKkZ4p-9CvN8be3TRm3-3" value="PORT 2&lt;br&gt;OnPremise_Perimeter_aza_net&lt;br&gt;100.96.192.64/26&lt;br&gt;Route Table: OnPremise_azA1_rt&lt;br&gt;&lt;div style=&quot;&quot;&gt;&lt;br&gt;&lt;/div&gt;&lt;div style=&quot;&quot;&gt;&lt;div&gt;0.0.0.0/0&lt;span style=&quot;&quot;&gt;	&lt;span style=&quot;white-space: pre;&quot;&gt;	&lt;/span&gt;&lt;span style=&quot;white-space: pre;&quot;&gt;	&lt;span style=&quot;white-space: pre;&quot;&gt;	&lt;/span&gt;&lt;/span&gt;&lt;/span&gt;DirectConnect VGW&lt;/div&gt;&lt;div&gt;10.0.0.0/8&lt;span style=&quot;&quot;&gt;	&lt;span style=&quot;white-space: pre;&quot;&gt;	&lt;span style=&quot;white-space: pre;&quot;&gt;	&lt;/span&gt;&lt;/span&gt;&lt;/span&gt;FWA-Port2&lt;/div&gt;&lt;div&gt;10.2.0.0/16&lt;span style=&quot;&quot;&gt;	&lt;span style=&quot;white-space: pre;&quot;&gt;	&lt;span style=&quot;white-space: pre;&quot;&gt;	&lt;/span&gt;&lt;/span&gt;&lt;/span&gt;FWA-Port2&lt;/div&gt;&lt;div&gt;10.7.4.0/22&lt;span style=&quot;&quot;&gt;	&lt;span style=&quot;white-space: pre;&quot;&gt;	&lt;span style=&quot;white-space: pre;&quot;&gt;	&lt;/span&gt;&lt;/span&gt;&lt;/span&gt;local&lt;/div&gt;&lt;div&gt;100.96.192.0/23&lt;span style=&quot;&quot;&gt;	&lt;span style=&quot;white-space: pre;&quot;&gt;	&lt;/span&gt;&lt;/span&gt;local&lt;/div&gt;&lt;div&gt;169.254.225.13/32&lt;span style=&quot;&quot;&gt;	&lt;span style=&quot;white-space: pre;&quot;&gt;	&lt;/span&gt;D&lt;/span&gt;irectConnect VGW&lt;/div&gt;&lt;div&gt;169.254.226.13/32&lt;span style=&quot;white-space: pre;&quot;&gt;	&lt;/span&gt;DirectConnect VGW&lt;/div&gt;&lt;/div&gt;" style="rounded=0;whiteSpace=wrap;html=1;align=left;verticalAlign=top;" parent="1" vertex="1">
          <mxGeometry x="120" y="240" width="250" height="190" as="geometry" />
        </mxCell>
        <mxCell id="pgKkZ4p-9CvN8be3TRm3-8" value="&lt;span style=&quot;&quot;&gt;PORT 1&lt;/span&gt;&lt;br style=&quot;&quot;&gt;&lt;span style=&quot;&quot;&gt;Public_Perimeter_aza_net&lt;/span&gt;&lt;br style=&quot;&quot;&gt;&lt;span style=&quot;&quot;&gt;100.96.192.128/16&lt;/span&gt;&lt;br style=&quot;&quot;&gt;&lt;span style=&quot;&quot;&gt;Rout Table: Public_Shared_RT1&lt;br&gt;&lt;br&gt;&lt;div&gt;0.0.0.0/0&lt;span style=&quot;&quot;&gt;			&lt;/span&gt;DirectConnect VGW&lt;/div&gt;&lt;div&gt;10.0.0.0/8&lt;span style=&quot;&quot;&gt;			&lt;/span&gt;FWA-Port2&lt;/div&gt;&lt;div&gt;10.2.0.0/16&lt;span style=&quot;&quot;&gt;			&lt;/span&gt;FWA-Port2&lt;/div&gt;&lt;div&gt;10.7.4.0/22&lt;span style=&quot;&quot;&gt;			&lt;/span&gt;local&lt;/div&gt;&lt;div&gt;100.96.192.0/23&lt;span style=&quot;&quot;&gt;		&lt;/span&gt;local&lt;/div&gt;&lt;div&gt;169.254.225.13/32&lt;span style=&quot;&quot;&gt;	&lt;/span&gt;DirectConnect VGW&lt;span style=&quot;&quot;&gt;	&lt;/span&gt;&amp;nbsp;&lt;/div&gt;&lt;div&gt;169.254.226.13/32&lt;span style=&quot;&quot;&gt;	&lt;/span&gt;DirectConnect VGW&lt;/div&gt;&lt;/span&gt;" style="rounded=0;whiteSpace=wrap;html=1;align=left;verticalAlign=top;" parent="1" vertex="1">
          <mxGeometry x="500" y="40" width="250" height="180" as="geometry" />
        </mxCell>
        <mxCell id="pgKkZ4p-9CvN8be3TRm3-9" value="PORT 2&lt;br&gt;OnPremise_Perimeter_aza_net&lt;br&gt;100.96.192.192/26&lt;br&gt;Route Table: OnPremise_azB1_rt&lt;br&gt;&lt;div style=&quot;&quot;&gt;&lt;br&gt;&lt;/div&gt;&lt;div style=&quot;&quot;&gt;&lt;div&gt;0.0.0.0/0&lt;span style=&quot;&quot;&gt;	&lt;span style=&quot;white-space: pre;&quot;&gt;	&lt;/span&gt;&lt;span style=&quot;white-space: pre;&quot;&gt;	&lt;span style=&quot;white-space: pre;&quot;&gt;	&lt;/span&gt;&lt;/span&gt;&lt;/span&gt;DirectConnect VGW&lt;/div&gt;&lt;div&gt;10.0.0.0/8&lt;span style=&quot;&quot;&gt;	&lt;span style=&quot;white-space: pre;&quot;&gt;	&lt;span style=&quot;white-space: pre;&quot;&gt;	&lt;/span&gt;&lt;/span&gt;&lt;/span&gt;FWB-Port2&lt;/div&gt;&lt;div&gt;10.2.0.0/16&lt;span style=&quot;&quot;&gt;	&lt;span style=&quot;white-space: pre;&quot;&gt;	&lt;span style=&quot;white-space: pre;&quot;&gt;	&lt;/span&gt;&lt;/span&gt;&lt;/span&gt;FWB-Port2&lt;/div&gt;&lt;div&gt;10.7.4.0/22&lt;span style=&quot;&quot;&gt;	&lt;span style=&quot;white-space: pre;&quot;&gt;	&lt;span style=&quot;white-space: pre;&quot;&gt;	&lt;/span&gt;&lt;/span&gt;&lt;/span&gt;local&lt;/div&gt;&lt;div&gt;100.96.192.0/23&lt;span style=&quot;&quot;&gt;	&lt;span style=&quot;white-space: pre;&quot;&gt;	&lt;/span&gt;&lt;/span&gt;local&lt;/div&gt;&lt;div&gt;169.254.225.13/32&lt;span style=&quot;&quot;&gt;	&lt;span style=&quot;white-space: pre;&quot;&gt;	&lt;/span&gt;D&lt;/span&gt;irectConnect VGW&lt;/div&gt;&lt;div&gt;169.254.226.13/32&lt;span style=&quot;white-space: pre;&quot;&gt;	&lt;/span&gt;DirectConnect VGW&lt;/div&gt;&lt;/div&gt;" style="rounded=0;whiteSpace=wrap;html=1;align=left;verticalAlign=top;" parent="1" vertex="1">
          <mxGeometry x="500" y="240" width="250" height="190" as="geometry" />
        </mxCell>
        <mxCell id="pgKkZ4p-9CvN8be3TRm3-10" value="PORT3&lt;br&gt;FWMgmt_perimeter_azA_net&lt;br&gt;100.96.193.32/27&lt;br&gt;Route Table: FWMgmt_azA1_rt&lt;br&gt;&lt;div style=&quot;&quot;&gt;&lt;br&gt;&lt;/div&gt;&lt;div style=&quot;&quot;&gt;&lt;div&gt;0.0.0.0/0&lt;span style=&quot;&quot;&gt;	&lt;span style=&quot;white-space: pre;&quot;&gt;	&lt;/span&gt;&lt;span style=&quot;white-space: pre;&quot;&gt;	&lt;span style=&quot;white-space: pre;&quot;&gt;	&lt;/span&gt;&lt;/span&gt;&lt;/span&gt;DirectConnect VGW&lt;/div&gt;&lt;div&gt;&lt;span style=&quot;background-color: initial;&quot;&gt;S3 PrefixList&lt;span style=&quot;white-space: pre;&quot;&gt;	&lt;/span&gt;&lt;span style=&quot;white-space: pre;&quot;&gt;	&lt;/span&gt;S3 VPC Endpoint&lt;/span&gt;&lt;/div&gt;&lt;div&gt;&lt;span style=&quot;background-color: initial;&quot;&gt;10.7.4.0/22&lt;/span&gt;&lt;span style=&quot;background-color: initial;&quot;&gt;	&lt;span style=&quot;white-space: pre;&quot;&gt;	&lt;span style=&quot;white-space: pre;&quot;&gt;	&lt;/span&gt;&lt;/span&gt;&lt;/span&gt;&lt;span style=&quot;background-color: initial;&quot;&gt;local&lt;/span&gt;&lt;br&gt;&lt;/div&gt;&lt;div&gt;100.96.192.0/23&lt;span style=&quot;&quot;&gt;	&lt;span style=&quot;white-space: pre;&quot;&gt;	&lt;/span&gt;&lt;/span&gt;local&lt;/div&gt;&lt;div&gt;192.197.178.2/32&lt;span style=&quot;&quot;&gt;	&lt;span style=&quot;white-space: pre;&quot;&gt;	&lt;/span&gt;D&lt;/span&gt;irectConnect VGW&lt;/div&gt;&lt;div&gt;&lt;br&gt;&lt;/div&gt;&lt;/div&gt;" style="rounded=0;whiteSpace=wrap;html=1;align=left;verticalAlign=top;" parent="1" vertex="1">
          <mxGeometry x="120" y="450" width="250" height="160" as="geometry" />
        </mxCell>
        <mxCell id="pgKkZ4p-9CvN8be3TRm3-11" value="PORT3&lt;br&gt;FWMgmt_perimeter_azB_net&lt;br&gt;100.96.193.160/27&lt;br&gt;Route Table: FWMgmt_azb1_rt&lt;br&gt;&lt;div style=&quot;&quot;&gt;&lt;br&gt;&lt;/div&gt;&lt;div style=&quot;&quot;&gt;&lt;div&gt;0.0.0.0/0&lt;span style=&quot;&quot;&gt;	&lt;span style=&quot;white-space: pre;&quot;&gt;	&lt;/span&gt;&lt;span style=&quot;white-space: pre;&quot;&gt;	&lt;span style=&quot;white-space: pre;&quot;&gt;	&lt;/span&gt;&lt;/span&gt;&lt;/span&gt;DirectConnect VGW&lt;/div&gt;&lt;div&gt;&lt;span style=&quot;background-color: initial;&quot;&gt;S3 PrefixList&lt;span style=&quot;white-space: pre;&quot;&gt;	&lt;/span&gt;&lt;span style=&quot;white-space: pre;&quot;&gt;	&lt;/span&gt;S3 VPC Endpoint&lt;/span&gt;&lt;/div&gt;&lt;div&gt;&lt;span style=&quot;background-color: initial;&quot;&gt;10.7.4.0/22&lt;/span&gt;&lt;span style=&quot;background-color: initial;&quot;&gt;	&lt;span style=&quot;white-space: pre;&quot;&gt;	&lt;span style=&quot;white-space: pre;&quot;&gt;	&lt;/span&gt;&lt;/span&gt;&lt;/span&gt;&lt;span style=&quot;background-color: initial;&quot;&gt;local&lt;/span&gt;&lt;br&gt;&lt;/div&gt;&lt;div&gt;100.96.192.0/23&lt;span style=&quot;&quot;&gt;	&lt;span style=&quot;white-space: pre;&quot;&gt;	&lt;/span&gt;&lt;/span&gt;local&lt;/div&gt;&lt;div&gt;&lt;br&gt;&lt;/div&gt;&lt;div&gt;&lt;br&gt;&lt;/div&gt;&lt;/div&gt;" style="rounded=0;whiteSpace=wrap;html=1;align=left;verticalAlign=top;" parent="1" vertex="1">
          <mxGeometry x="500" y="450" width="250" height="160" as="geometry" />
        </mxCell>
      </root>
    </mxGraphModel>
  </diagram>
</mxfile>
